<?xml version="1.0" standalone="no"?>
<!DOCTYPE svg PUBLIC "-//W3C//DTD SVG 20010904//EN"
 "http://www.w3.org/TR/2001/REC-SVG-20010904/DTD/svg10.dtd">
<svg version="1.0" xmlns="http://www.w3.org/2000/svg"
 width="48.000000pt" height="48.000000pt" viewBox="0 0 48.000000 48.000000"
 preserveAspectRatio="xMidYMid meet">
<metadata>
Created by potrace 1.16, written by Peter Selinger 2001-2019
</metadata>
<g transform="translate(0.000000,48.000000) scale(0.100000,-0.100000)"
fill="#000000" stroke="none">
<path d="M58 434 c6 -11 5 -26 -4 -43 -8 -14 -14 -35 -14 -46 0 -11 -9 -26
-20 -33 -46 -29 -9 -74 56 -69 27 2 28 0 25 -39 -3 -55 12 -62 44 -20 14 19
38 42 52 51 l25 17 -18 -32 c-11 -18 -31 -42 -46 -53 -30 -22 -37 -47 -15 -47
8 0 24 9 37 20 40 34 38 23 -6 -37 -23 -31 -32 -73 -16 -73 4 0 16 6 27 13 56
38 78 51 71 39 -10 -16 50 -42 96 -42 58 0 108 54 108 118 0 15 5 33 12 40 9
9 9 15 0 24 -17 17 -41 1 -67 -42 -11 -18 -32 -46 -47 -62 -33 -35 -57 -29
-33 9 11 16 14 34 10 55 l-7 30 -47 -46 c-26 -25 -50 -46 -54 -46 -13 0 34 69
59 84 28 19 33 49 7 39 -10 -3 -28 -15 -40 -26 -13 -11 -23 -17 -23 -12 0 13
41 75 50 75 5 0 8 14 8 30 -1 17 -3 30 -5 30 -3 0 -25 -14 -49 -31 -25 -17
-47 -29 -49 -27 -2 2 2 17 10 32 21 41 20 86 -3 86 -10 0 -27 -7 -39 -15 -21
-15 -23 -14 -48 25 -14 22 -32 40 -41 40 -11 0 -13 -4 -6 -16z"/>
</g>
</svg>
