<?xml version="1.0" standalone="no"?>
<!DOCTYPE svg PUBLIC "-//W3C//DTD SVG 20010904//EN"
 "http://www.w3.org/TR/2001/REC-SVG-20010904/DTD/svg10.dtd">
<svg version="1.0" xmlns="http://www.w3.org/2000/svg"
 width="512.000000pt" height="512.000000pt" viewBox="0 0 512.000000 512.000000"
 preserveAspectRatio="xMidYMid meet">

<g transform="translate(0.000000,512.000000) scale(0.100000,-0.100000)"
fill="#000000" stroke="none">
<path d="M697 4702 c68 -137 96 -319 54 -342 -19 -9 -19 -13 -5 -45 11 -28 12
-35 1 -35 -7 0 -19 6 -26 13 -8 6 -5 -1 5 -17 l19 -30 -23 6 c-15 4 -20 3 -15
-5 15 -23 10 -57 -8 -57 -9 0 -29 -7 -45 -15 l-28 -14 30 -12 29 -11 -28 -10
c-30 -11 -28 -28 4 -28 10 0 19 -2 19 -5 0 -3 -20 -30 -45 -61 -58 -71 -99
-153 -126 -251 -18 -65 -21 -94 -16 -193 3 -63 7 -123 9 -133 2 -14 -13 -25
-66 -48 -141 -60 -283 -173 -377 -300 -47 -63 -50 -71 -36 -87 8 -9 26 -39 40
-67 44 -87 108 -165 157 -190 70 -35 199 -73 296 -86 112 -15 232 -6 354 25
l95 24 90 -29 c49 -16 95 -29 101 -29 20 0 154 -72 154 -83 0 -32 -93 -179
-152 -241 -78 -81 -78 -81 -53 -246 18 -118 62 -330 76 -368 l11 -27 51 55
c28 30 144 156 257 280 254 276 383 402 565 548 142 114 263 185 338 198 45 8
45 4 16 -92 -32 -104 -84 -200 -220 -407 -68 -103 -157 -239 -197 -301 -92
-141 -202 -271 -264 -309 -34 -21 -67 -31 -118 -37 -46 -5 -78 -14 -91 -26
-46 -41 -136 -270 -115 -291 12 -12 176 35 252 72 90 44 146 98 171 163 18 50
20 51 203 163 288 175 433 259 438 255 13 -13 -228 -413 -504 -835 -76 -117
-216 -269 -300 -327 -48 -33 -55 -42 -50 -64 3 -14 13 -59 22 -100 12 -56 15
-103 10 -188 l-5 -112 207 141 c434 296 696 459 936 581 138 70 139 70 132 42
-4 -16 -38 -83 -76 -149 -94 -164 -94 -163 -27 -207 98 -65 173 -97 449 -188
315 -105 388 -119 528 -101 119 15 233 52 352 113 310 158 531 434 642 800 44
146 62 254 86 515 12 130 27 229 37 254 19 48 72 91 144 114 l51 17 -22 23
c-12 13 -48 35 -81 49 -112 51 -252 30 -357 -53 -114 -90 -194 -200 -323 -443
-241 -452 -275 -505 -424 -654 -116 -117 -245 -210 -328 -238 -67 -22 -171
-20 -252 5 l-68 21 7 62 c19 188 129 418 248 520 l42 36 -13 108 c-12 111 -64
384 -82 429 l-10 26 -40 -39 c-23 -21 -132 -138 -244 -259 -452 -490 -763
-751 -925 -772 l-43 -6 7 39 c22 114 79 227 237 466 68 102 154 233 191 291
84 131 193 263 253 306 38 27 60 35 122 42 94 10 113 26 163 134 38 80 68 180
58 190 -11 11 -201 -46 -266 -80 -85 -44 -137 -96 -161 -161 -16 -42 -27 -54
-77 -83 -33 -19 -144 -87 -249 -151 -229 -140 -305 -183 -312 -176 -8 8 78
163 175 316 47 74 139 221 205 325 65 105 140 219 165 255 64 89 175 204 250
258 52 37 62 49 57 66 -28 97 -37 169 -32 279 2 64 2 117 0 117 -2 0 -122 -80
-266 -179 -296 -201 -473 -314 -666 -425 -142 -82 -324 -176 -340 -176 -18 0
28 91 70 138 93 106 147 247 156 407 l6 99 54 50 c89 81 156 194 188 316 32
122 20 298 -30 416 l-15 37 -66 -7 c-130 -13 -306 -83 -430 -171 -33 -24 -97
-82 -142 -129 l-81 -87 -30 58 c-16 32 -45 81 -65 108 -43 60 -156 176 -203
207 -23 16 -38 38 -49 73 -63 194 -221 398 -391 506 l-29 18 43 -87z m1407
-703 c3 -17 6 -63 6 -101 0 -115 -65 -275 -153 -374 -25 -29 -31 -32 -43 -20
-7 8 -19 17 -26 19 -10 4 -8 10 5 20 12 10 14 17 8 22 -17 10 -13 21 14 33 14
6 25 19 25 28 0 13 -9 15 -50 12 -28 -1 -50 -1 -50 2 0 3 16 16 35 30 38 27
44 40 19 40 -11 0 -15 6 -11 20 6 24 8 24 -36 5 -49 -20 -50 -20 -31 17 l17
33 -36 -28 c-20 -15 -38 -27 -41 -27 -3 0 4 21 14 46 11 25 20 47 20 50 0 2
-16 -13 -35 -34 l-34 -37 -1 37 c0 31 7 42 47 78 56 49 154 105 238 136 81 31
91 30 99 -7z"/>
</g>
</svg>
