<?xml version="1.0" standalone="no"?>
<!DOCTYPE svg PUBLIC "-//W3C//DTD SVG 20010904//EN"
 "http://www.w3.org/TR/2001/REC-SVG-20010904/DTD/svg10.dtd">
<svg version="1.0" xmlns="http://www.w3.org/2000/svg"
 width="32.000000pt" height="32.000000pt" viewBox="0 0 32.000000 32.000000"
 preserveAspectRatio="xMidYMid meet">

<g transform="translate(0.000000,32.000000) scale(0.100000,-0.100000)"
fill="#000000" stroke="none">
<path d="M32 233 c-24 -54 -22 -63 19 -63 26 0 29 -3 23 -25 -8 -32 -3 -32 37
6 20 18 35 26 37 19 3 -7 9 -4 18 7 21 29 16 35 -16 18 -16 -8 -30 -15 -32
-15 -2 0 -3 16 -4 35 0 19 4 35 9 35 6 0 7 3 4 6 -4 4 -14 1 -23 -7 -14 -11
-19 -10 -34 8 -17 21 -17 21 -38 -24z"/>
<path d="M269 113 c-40 -60 -83 -75 -58 -19 18 39 6 41 -32 5 -20 -18 -35 -26
-37 -19 -3 7 -10 3 -19 -10 -20 -29 -11 -35 21 -15 23 16 27 16 41 1 23 -23
70 -20 94 5 18 19 34 89 21 89 -4 0 -18 -17 -31 -37z"/>
<path d="M126 123 c-6 -14 -5 -15 5 -6 7 7 10 15 7 18 -3 3 -9 -2 -12 -12z"/>
<path d="M150 120 c-6 -11 -8 -20 -6 -20 3 0 10 9 16 20 6 11 8 20 6 20 -3 0
-10 -9 -16 -20z"/>
</g>
</svg>
